<svg width="20" height="21" viewBox="0 0 20 21" fill="none" xmlns="http://www.w3.org/2000/svg">
<g id="lue/arrow-right">
<path id="Vector" d="M16.0636 10.7412L16.0635 10.7411L16.0554 10.7492L10.2357 16.569C10.1705 16.6341 10.0859 16.6667 10 16.6667C9.91422 16.6667 9.82962 16.6341 9.76443 16.569C9.63386 16.4384 9.63386 16.2283 9.76443 16.0977L14.1753 11.6869L15.0288 10.8333H13.8217H4.16671C3.98285 10.8333 3.83337 10.6839 3.83337 10.5C3.83337 10.3161 3.98285 10.1667 4.16671 10.1667H13.8217H15.0288L14.1753 9.31312L9.76443 4.90228C9.63386 4.77171 9.63386 4.56163 9.76443 4.43106C9.895 4.30049 10.1051 4.30049 10.2357 4.43106L16.0555 10.2509L16.0554 10.251L16.0636 10.2588C16.0896 10.2837 16.1115 10.3126 16.1283 10.3442L16.1284 10.3444C16.1796 10.4408 16.1798 10.558 16.129 10.6546L16.1289 10.6547C16.112 10.6868 16.0899 10.7161 16.0636 10.7412Z" fill="#FF5C00" stroke="#FF5C00"/>
</g>
</svg>
